<mxfile host="app.diagrams.net" modified="2021-02-05T13:53:13.985Z" agent="5.0 (Macintosh; Intel Mac OS X 10_15_5) AppleWebKit/537.36 (KHTML, like Gecko) Chrome/88.0.4324.146 Safari/537.36" etag="T5XYxx9d5i6Sxq8zNYmC" version="14.2.9" type="github">
  <diagram id="9nFq5-tLV_lvCpbANjnR" name="Page-1">
    <mxGraphModel dx="1426" dy="794" grid="1" gridSize="10" guides="1" tooltips="1" connect="1" arrows="1" fold="1" page="1" pageScale="1" pageWidth="827" pageHeight="1169" math="0" shadow="0">
      <root>
        <mxCell id="0" />
        <mxCell id="1" parent="0" />
        <mxCell id="Nb4KZ4cBzh-TBKE7pUr4-2" value="Command&lt;br style=&quot;font-size: 16px;&quot;&gt;/ Query" style="text;html=1;resizable=0;autosize=1;align=center;verticalAlign=middle;points=[];fillColor=none;strokeColor=none;rounded=0;fontSize=16;" parent="1" vertex="1">
          <mxGeometry x="40" y="200" width="90" height="40" as="geometry" />
        </mxCell>
        <mxCell id="Nb4KZ4cBzh-TBKE7pUr4-3" value="" style="endArrow=classic;html=1;" parent="1" edge="1">
          <mxGeometry width="50" height="50" relative="1" as="geometry">
            <mxPoint x="130" y="219.5" as="sourcePoint" />
            <mxPoint x="240" y="220" as="targetPoint" />
          </mxGeometry>
        </mxCell>
        <mxCell id="Nb4KZ4cBzh-TBKE7pUr4-4" value="BUS" style="rounded=1;whiteSpace=wrap;html=1;fontSize=14;" parent="1" vertex="1">
          <mxGeometry x="251" y="205" width="220" height="30" as="geometry" />
        </mxCell>
        <mxCell id="Nb4KZ4cBzh-TBKE7pUr4-8" value="Events" style="text;html=1;resizable=0;autosize=1;align=center;verticalAlign=middle;points=[];fillColor=none;strokeColor=none;rounded=0;glass=1;fontSize=16;" parent="1" vertex="1">
          <mxGeometry x="400" y="170" width="60" height="20" as="geometry" />
        </mxCell>
        <mxCell id="Nb4KZ4cBzh-TBKE7pUr4-9" value="Commands" style="text;html=1;resizable=0;autosize=1;align=center;verticalAlign=middle;points=[];fillColor=none;strokeColor=none;rounded=0;glass=1;fontSize=16;" parent="1" vertex="1">
          <mxGeometry x="240" y="170" width="100" height="20" as="geometry" />
        </mxCell>
        <mxCell id="Nb4KZ4cBzh-TBKE7pUr4-10" value="" style="endArrow=classic;html=1;fontSize=16;" parent="1" edge="1">
          <mxGeometry width="50" height="50" relative="1" as="geometry">
            <mxPoint x="350" y="200" as="sourcePoint" />
            <mxPoint x="350" y="160" as="targetPoint" />
          </mxGeometry>
        </mxCell>
        <mxCell id="Nb4KZ4cBzh-TBKE7pUr4-12" value="" style="endArrow=classic;html=1;fontSize=16;" parent="1" edge="1">
          <mxGeometry width="50" height="50" relative="1" as="geometry">
            <mxPoint x="389" y="160" as="sourcePoint" />
            <mxPoint x="389" y="200" as="targetPoint" />
          </mxGeometry>
        </mxCell>
        <mxCell id="Nb4KZ4cBzh-TBKE7pUr4-13" value="Event&amp;nbsp;&lt;br&gt;Store" style="shape=cylinder3;whiteSpace=wrap;html=1;boundedLbl=1;backgroundOutline=1;size=15;glass=1;fontSize=16;" parent="1" vertex="1">
          <mxGeometry x="331" y="316" width="60" height="80" as="geometry" />
        </mxCell>
        <mxCell id="Nb4KZ4cBzh-TBKE7pUr4-15" value="" style="endArrow=classic;startArrow=classic;html=1;fontSize=16;" parent="1" edge="1">
          <mxGeometry width="50" height="50" relative="1" as="geometry">
            <mxPoint x="361" y="310" as="sourcePoint" />
            <mxPoint x="360.5" y="240" as="targetPoint" />
          </mxGeometry>
        </mxCell>
        <mxCell id="Nb4KZ4cBzh-TBKE7pUr4-16" value="Command Service" style="rounded=0;whiteSpace=wrap;html=1;glass=1;fontSize=16;fillColor=none;" parent="1" vertex="1">
          <mxGeometry x="301" y="90" width="120" height="60" as="geometry" />
        </mxCell>
        <mxCell id="Nb4KZ4cBzh-TBKE7pUr4-17" value="Query Service" style="rounded=0;whiteSpace=wrap;html=1;glass=1;fontSize=16;fillColor=none;" parent="1" vertex="1">
          <mxGeometry x="610" y="190" width="120" height="60" as="geometry" />
        </mxCell>
        <mxCell id="Nb4KZ4cBzh-TBKE7pUr4-19" value="RDBMS" style="shape=cylinder3;whiteSpace=wrap;html=1;boundedLbl=1;backgroundOutline=1;size=15;glass=1;fontSize=16;" parent="1" vertex="1">
          <mxGeometry x="640" y="316" width="60" height="80" as="geometry" />
        </mxCell>
        <mxCell id="Nb4KZ4cBzh-TBKE7pUr4-20" value="" style="endArrow=classic;startArrow=classic;html=1;fontSize=16;" parent="1" edge="1">
          <mxGeometry width="50" height="50" relative="1" as="geometry">
            <mxPoint x="669.5" y="310" as="sourcePoint" />
            <mxPoint x="669.5" y="260" as="targetPoint" />
          </mxGeometry>
        </mxCell>
        <mxCell id="Nb4KZ4cBzh-TBKE7pUr4-25" value="&amp;nbsp;Query&amp;nbsp;" style="endArrow=classic;startArrow=classic;html=1;fontSize=16;" parent="1" edge="1">
          <mxGeometry width="50" height="50" relative="1" as="geometry">
            <mxPoint x="480" y="220" as="sourcePoint" />
            <mxPoint x="600" y="220" as="targetPoint" />
          </mxGeometry>
        </mxCell>
        <mxCell id="Nb4KZ4cBzh-TBKE7pUr4-27" value="Label" style="endArrow=classic;html=1;fontSize=14;dashed=1;strokeWidth=2;" parent="1" edge="1">
          <mxGeometry relative="1" as="geometry">
            <mxPoint x="630" y="360" as="sourcePoint" />
            <mxPoint x="400" y="360" as="targetPoint" />
          </mxGeometry>
        </mxCell>
        <mxCell id="Nb4KZ4cBzh-TBKE7pUr4-28" value="Projection" style="edgeLabel;resizable=0;html=1;align=center;verticalAlign=middle;fontSize=16;" parent="Nb4KZ4cBzh-TBKE7pUr4-27" connectable="0" vertex="1">
          <mxGeometry relative="1" as="geometry" />
        </mxCell>
      </root>
    </mxGraphModel>
  </diagram>
</mxfile>
